<mxfile host="Electron" modified="2024-06-07T07:17:15.750Z" agent="Mozilla/5.0 (Windows NT 10.0; Win64; x64) AppleWebKit/537.36 (KHTML, like Gecko) draw.io/24.4.0 Chrome/120.0.6099.109 Electron/28.1.0 Safari/537.36" etag="JfKUA0pN3yUIrhHiLZg0" version="24.4.0" type="device">
  <diagram name="第 1 页" id="dIvLwxIjEMt4BDKvPqLo">
    <mxGraphModel dx="2261" dy="844" grid="1" gridSize="10" guides="1" tooltips="1" connect="1" arrows="1" fold="1" page="1" pageScale="1" pageWidth="827" pageHeight="1169" math="0" shadow="0">
      <root>
        <mxCell id="0" />
        <mxCell id="1" parent="0" />
        <mxCell id="baASvYu4RO-eLkgYfNt_-1" value="进房间消息流程" style="text;html=1;align=center;verticalAlign=middle;whiteSpace=wrap;rounded=0;fontSize=29;" vertex="1" parent="1">
          <mxGeometry x="-360" y="60" width="510" height="70" as="geometry" />
        </mxCell>
        <mxCell id="baASvYu4RO-eLkgYfNt_-6" style="edgeStyle=orthogonalEdgeStyle;rounded=0;orthogonalLoop=1;jettySize=auto;html=1;entryX=0;entryY=0.5;entryDx=0;entryDy=0;" edge="1" parent="1" source="baASvYu4RO-eLkgYfNt_-2" target="baASvYu4RO-eLkgYfNt_-3">
          <mxGeometry relative="1" as="geometry" />
        </mxCell>
        <mxCell id="baASvYu4RO-eLkgYfNt_-2" value="Match" style="rounded=1;whiteSpace=wrap;html=1;fontSize=28;fillColor=#e1d5e7;strokeColor=#9673a6;" vertex="1" parent="1">
          <mxGeometry x="-110" y="160" width="120" height="60" as="geometry" />
        </mxCell>
        <mxCell id="baASvYu4RO-eLkgYfNt_-3" value="Map" style="rounded=1;whiteSpace=wrap;html=1;fontSize=28;fillColor=#e1d5e7;strokeColor=#9673a6;" vertex="1" parent="1">
          <mxGeometry x="560" y="160" width="120" height="60" as="geometry" />
        </mxCell>
        <mxCell id="baASvYu4RO-eLkgYfNt_-4" value="GatePlayer" style="rounded=1;whiteSpace=wrap;html=1;fontSize=28;fillColor=#e1d5e7;strokeColor=#9673a6;" vertex="1" parent="1">
          <mxGeometry x="160" y="610" width="190" height="70" as="geometry" />
        </mxCell>
        <mxCell id="baASvYu4RO-eLkgYfNt_-5" value="Client" style="rounded=1;whiteSpace=wrap;html=1;fontSize=28;fillColor=#e1d5e7;strokeColor=#9673a6;" vertex="1" parent="1">
          <mxGeometry x="470" y="610" width="190" height="70" as="geometry" />
        </mxCell>
        <mxCell id="baASvYu4RO-eLkgYfNt_-7" value="3.&amp;nbsp; Match2Map_GetRoom" style="text;html=1;align=center;verticalAlign=middle;whiteSpace=wrap;rounded=0;fontSize=15;" vertex="1" parent="1">
          <mxGeometry x="210" y="140" width="240" height="30" as="geometry" />
        </mxCell>
        <mxCell id="baASvYu4RO-eLkgYfNt_-8" value="4.Map2Match_GetRoom" style="text;html=1;align=center;verticalAlign=middle;whiteSpace=wrap;rounded=0;fontSize=15;" vertex="1" parent="1">
          <mxGeometry x="210" y="210" width="160" height="30" as="geometry" />
        </mxCell>
        <mxCell id="baASvYu4RO-eLkgYfNt_-9" value="" style="endArrow=classic;html=1;rounded=0;exitX=0.25;exitY=1;exitDx=0;exitDy=0;entryX=0;entryY=0;entryDx=0;entryDy=0;" edge="1" parent="1" source="baASvYu4RO-eLkgYfNt_-2" target="baASvYu4RO-eLkgYfNt_-4">
          <mxGeometry width="50" height="50" relative="1" as="geometry">
            <mxPoint x="390" y="360" as="sourcePoint" />
            <mxPoint x="440" y="310" as="targetPoint" />
          </mxGeometry>
        </mxCell>
        <mxCell id="baASvYu4RO-eLkgYfNt_-10" value="6. Match2G_NorifyMatchSuccess" style="text;html=1;align=center;verticalAlign=middle;whiteSpace=wrap;rounded=0;fontSize=15;" vertex="1" parent="1">
          <mxGeometry x="-210" y="380" width="280" height="60" as="geometry" />
        </mxCell>
        <mxCell id="baASvYu4RO-eLkgYfNt_-11" value="" style="endArrow=classic;html=1;rounded=0;entryX=0.925;entryY=1.033;entryDx=0;entryDy=0;entryPerimeter=0;exitX=0.5;exitY=0;exitDx=0;exitDy=0;" edge="1" parent="1" source="baASvYu4RO-eLkgYfNt_-4" target="baASvYu4RO-eLkgYfNt_-2">
          <mxGeometry width="50" height="50" relative="1" as="geometry">
            <mxPoint x="390" y="360" as="sourcePoint" />
            <mxPoint x="440" y="310" as="targetPoint" />
          </mxGeometry>
        </mxCell>
        <mxCell id="baASvYu4RO-eLkgYfNt_-12" value="2.G2Match_Match&lt;br&gt;5.&amp;nbsp;&lt;span style=&quot;background-color: initial;&quot;&gt;Match2G_Match&lt;/span&gt;" style="text;html=1;align=center;verticalAlign=middle;whiteSpace=wrap;rounded=0;fontSize=15;" vertex="1" parent="1">
          <mxGeometry x="90" y="370" width="210" height="40" as="geometry" />
        </mxCell>
        <mxCell id="baASvYu4RO-eLkgYfNt_-13" value="" style="endArrow=classic;html=1;rounded=0;exitX=0.653;exitY=0.043;exitDx=0;exitDy=0;exitPerimeter=0;entryX=0;entryY=0.75;entryDx=0;entryDy=0;" edge="1" parent="1" source="baASvYu4RO-eLkgYfNt_-4" target="baASvYu4RO-eLkgYfNt_-3">
          <mxGeometry width="50" height="50" relative="1" as="geometry">
            <mxPoint x="390" y="360" as="sourcePoint" />
            <mxPoint x="440" y="310" as="targetPoint" />
          </mxGeometry>
        </mxCell>
        <mxCell id="baASvYu4RO-eLkgYfNt_-14" value="" style="endArrow=classic;html=1;rounded=0;exitX=0.417;exitY=1;exitDx=0;exitDy=0;exitPerimeter=0;entryX=0.926;entryY=-0.029;entryDx=0;entryDy=0;entryPerimeter=0;" edge="1" parent="1" source="baASvYu4RO-eLkgYfNt_-3" target="baASvYu4RO-eLkgYfNt_-4">
          <mxGeometry width="50" height="50" relative="1" as="geometry">
            <mxPoint x="390" y="360" as="sourcePoint" />
            <mxPoint x="440" y="310" as="targetPoint" />
          </mxGeometry>
        </mxCell>
        <mxCell id="baASvYu4RO-eLkgYfNt_-15" value="8.C22Room_ChangeSceneFinish" style="text;html=1;align=center;verticalAlign=middle;whiteSpace=wrap;rounded=0;" vertex="1" parent="1">
          <mxGeometry x="259" y="300" width="300" height="50" as="geometry" />
        </mxCell>
        <mxCell id="baASvYu4RO-eLkgYfNt_-16" value="9.Room2C_Start" style="text;html=1;align=center;verticalAlign=middle;whiteSpace=wrap;rounded=0;" vertex="1" parent="1">
          <mxGeometry x="510" y="400" width="60" height="30" as="geometry" />
        </mxCell>
        <mxCell id="baASvYu4RO-eLkgYfNt_-17" value="" style="endArrow=classic;html=1;rounded=0;exitX=1;exitY=0.75;exitDx=0;exitDy=0;entryX=0;entryY=0.75;entryDx=0;entryDy=0;" edge="1" parent="1" source="baASvYu4RO-eLkgYfNt_-4" target="baASvYu4RO-eLkgYfNt_-5">
          <mxGeometry width="50" height="50" relative="1" as="geometry">
            <mxPoint x="590" y="520" as="sourcePoint" />
            <mxPoint x="640" y="470" as="targetPoint" />
          </mxGeometry>
        </mxCell>
        <mxCell id="baASvYu4RO-eLkgYfNt_-18" value="7.Match2G__NotifyMatchSuccess" style="text;html=1;align=center;verticalAlign=middle;whiteSpace=wrap;rounded=0;" vertex="1" parent="1">
          <mxGeometry x="320" y="680" width="210" height="50" as="geometry" />
        </mxCell>
        <mxCell id="baASvYu4RO-eLkgYfNt_-19" value="1. C2G_Match" style="text;html=1;align=center;verticalAlign=middle;whiteSpace=wrap;rounded=0;" vertex="1" parent="1">
          <mxGeometry x="352.5" y="585" width="115" height="35" as="geometry" />
        </mxCell>
        <mxCell id="baASvYu4RO-eLkgYfNt_-20" value="" style="endArrow=classic;html=1;rounded=0;exitX=0;exitY=0.25;exitDx=0;exitDy=0;entryX=1;entryY=0.25;entryDx=0;entryDy=0;" edge="1" parent="1" source="baASvYu4RO-eLkgYfNt_-5" target="baASvYu4RO-eLkgYfNt_-4">
          <mxGeometry width="50" height="50" relative="1" as="geometry">
            <mxPoint x="300" y="440" as="sourcePoint" />
            <mxPoint x="350" y="390" as="targetPoint" />
          </mxGeometry>
        </mxCell>
      </root>
    </mxGraphModel>
  </diagram>
</mxfile>
